<?xml version="1.0" standalone="no"?>
<!DOCTYPE svg PUBLIC "-//W3C//DTD SVG 20010904//EN"
 "http://www.w3.org/TR/2001/REC-SVG-20010904/DTD/svg10.dtd">
<svg version="1.0" xmlns="http://www.w3.org/2000/svg"
 width="1024.000000pt" height="1024.000000pt" viewBox="0 0 1024.000000 1024.000000"
 preserveAspectRatio="xMidYMid meet">

<g transform="translate(0.000000,1024.000000) scale(0.100000,-0.100000)"
fill="#000000" stroke="none">
<path d="M6012 9518 c-7 -7 -12 -29 -12 -49 0 -29 5 -39 20 -44 29 -9 50 12
50 51 0 23 -6 37 -19 44 -24 13 -24 13 -39 -2z"/>
<path d="M5216 9500 c-59 -18 -96 -73 -96 -141 0 -45 29 -102 61 -119 18 -10
19 -24 19 -190 0 -180 0 -180 -22 -180 -183 -5 -251 -10 -277 -23 l-29 -15 -4
192 -3 192 -39 75 c-21 41 -50 86 -64 101 -62 67 -200 77 -271 21 -20 -17 -44
-45 -55 -64 l-19 -34 -185 -2 c-170 -2 -188 -4 -230 -25 -25 -13 -60 -40 -76
-61 l-31 -39 -3 -159 -4 -159 -34 0 c-51 0 -89 -24 -112 -70 l-20 -41 -36 51
c-88 123 -246 188 -391 162 -89 -17 -141 -42 -201 -95 -52 -47 -106 -136 -119
-197 -23 -105 6 -246 74 -362 l40 -68 -131 0 c-109 0 -129 2 -119 14 20 24 51
128 51 171 0 89 -54 204 -136 293 -62 66 -109 89 -219 109 -94 17 -234 -25
-327 -99 -25 -20 -52 -59 -85 -126 -39 -80 -48 -108 -50 -156 -1 -44 -5 -60
-16 -62 -43 -6 -137 -39 -173 -59 -80 -47 -147 -149 -160 -243 -12 -95 31
-208 106 -276 22 -20 40 -38 40 -41 0 -3 -151 -5 -335 -5 l-336 0 -24 -26
c-34 -36 -33 -81 3 -127 56 -74 221 -264 254 -293 l34 -29 312 2 312 3 0 -75
c0 -41 -2 -75 -5 -75 -2 0 -39 12 -82 26 -243 80 -503 13 -656 -169 -104 -124
-136 -207 -146 -371 l-6 -108 -56 -18 c-79 -24 -162 -74 -223 -134 -68 -66
-139 -195 -138 -251 0 -28 -8 -50 -26 -74 -42 -56 -41 -113 2 -200 21 -40 39
-89 42 -108 9 -76 97 -169 209 -223 50 -24 65 -35 50 -38 -63 -14 -102 -79
-85 -141 16 -60 54 -85 159 -106 l91 -17 0 -104 c0 -98 -1 -104 -20 -104 -47
0 -149 -59 -221 -127 -41 -39 -89 -78 -106 -87 -63 -32 -67 -48 -64 -243 3
-192 14 -254 61 -340 l28 -53 -34 -51 c-111 -165 -109 -406 6 -576 l30 -44
-29 -39 c-85 -117 -116 -308 -71 -440 29 -86 67 -144 143 -217 104 -101 243
-184 405 -243 l72 -26 -60 -39 c-167 -108 -232 -316 -154 -493 33 -74 64 -114
127 -161 51 -39 185 -91 233 -91 l24 0 0 -347 c0 -330 1 -349 21 -389 15 -32
32 -49 67 -66 45 -22 58 -23 292 -25 135 0 427 3 650 7 223 5 1674 11 3224 14
2819 6 2819 6 2862 26 64 31 75 63 85 254 4 88 8 243 9 344 0 174 1 182 20
182 78 0 208 60 274 126 154 154 166 392 29 561 -39 48 -41 53 -24 62 10 6 78
13 152 16 166 8 267 21 296 41 28 18 53 75 53 120 0 35 -30 83 -191 305 -157
217 -291 410 -288 413 2 2 22 13 44 24 91 46 188 183 222 315 15 60 14 172 -3
248 -5 24 0 30 59 63 77 42 145 115 184 194 23 48 28 72 31 158 4 85 1 110
-17 160 -38 104 -118 190 -219 240 l-33 16 23 24 c13 13 36 37 51 52 27 27 57
104 57 144 0 26 -65 26 -79 -1 -6 -10 -28 -26 -50 -35 -23 -8 -58 -31 -79 -51
-22 -19 -42 -35 -45 -35 -3 0 -7 45 -9 100 l-3 100 60 0 c33 0 65 4 72 8 9 5
13 95 15 336 l3 328 -28 24 c-26 22 -36 24 -148 24 l-119 0 0 35 0 35 179 0
c150 0 182 3 195 16 13 13 16 44 16 182 l0 167 -53 87 c-88 147 -196 295 -235
322 -20 14 -54 32 -74 41 -21 8 -38 17 -38 18 0 2 20 19 45 37 80 60 119 176
95 282 -23 101 -88 176 -198 232 -69 35 -90 66 -73 112 20 55 7 87 -54 133
-55 42 -82 50 -102 30 -18 -18 -69 27 -91 81 l-20 47 -62 6 c-79 9 -124 -10
-140 -57 -17 -52 -51 -79 -92 -71 -28 5 -40 1 -72 -24 -21 -17 -39 -31 -40
-31 0 0 -2 16 -3 35 -2 19 -9 52 -16 73 l-14 39 48 1 c76 1 123 19 174 64 84
74 120 208 81 302 -14 33 -22 252 -17 451 3 101 -4 128 -45 168 -58 58 -151
74 -212 37 l-33 -20 -32 24 c-40 30 -105 41 -150 27 -18 -6 -49 -27 -67 -46
-26 -27 -42 -35 -68 -35 -26 0 -43 -9 -73 -38 l-38 -39 2 -110 c2 -101 4 -113
30 -152 l28 -42 -71 -104 c-75 -109 -70 -106 -167 -120 -28 -5 -43 -3 -43 4 0
6 4 11 9 11 14 0 91 118 108 165 10 31 14 72 11 133 l-3 89 -84 124 c-156 231
-157 232 -416 233 -230 1 -233 0 -354 -123 -46 -48 -80 -80 -76 -73 4 7 6 61
6 119 -1 97 -4 108 -26 135 -22 26 -25 39 -25 109 0 65 -3 82 -20 99 -43 43
-82 50 -286 50 -106 0 -204 -4 -218 -10 -45 -17 -61 -55 -59 -139 2 -65 0 -78
-18 -98 -18 -18 -22 -34 -21 -87 l0 -66 -34 50 c-19 27 -34 53 -34 56 0 4 -18
22 -40 41 -22 19 -40 38 -40 43 0 5 13 11 30 15 60 13 107 103 89 169 -15 53
-312 391 -373 424 -26 14 -68 17 -261 19 -126 1 -243 -2 -259 -7z m468 -101
c25 -19 35 -52 18 -62 -4 -3 -110 -7 -235 -8 -244 -4 -255 -2 -241 46 12 42
29 45 235 45 183 0 198 -1 223 -21z m-1034 -54 c59 -30 68 -98 21 -146 -53
-52 -138 -33 -161 36 -14 42 6 87 48 109 35 19 56 20 92 1z m1050 -187 c36
-45 118 -135 183 -201 64 -65 117 -119 117 -120 0 -1 -155 -3 -345 -5 l-345
-3 0 205 0 206 163 0 162 -1 65 -81z m198 -20 c7 -7 12 -21 12 -33 0 -12 -5
-26 -12 -33 -7 -7 -21 -12 -33 -12 -12 0 -26 5 -33 12 -7 7 -12 21 -12 33 0
12 5 26 12 33 7 7 21 12 33 12 12 0 26 -5 33 -12z m-1475 -78 c4 -15 14 -20
39 -21 l33 -2 -35 -6 -35 -6 -3 -802 -2 -803 -50 0 -50 0 0 703 c-1 599 -3
705 -15 721 -14 18 -27 19 -160 17 l-145 -2 0 110 0 111 209 0 c200 0 209 -1
214 -20z m2245 -150 c3 -109 8 -130 31 -130 10 0 29 -8 42 -19 20 -16 21 -22
13 -52 -8 -30 -14 -33 -42 -33 -32 1 -32 1 -32 -50 0 -103 14 -96 -200 -96
-214 0 -200 -7 -200 95 0 63 0 63 -31 70 -42 9 -58 45 -35 80 10 15 26 25 41
25 25 0 25 1 25 93 0 52 3 97 7 101 4 3 90 5 192 4 l186 -3 3 -85z m-3216 -52
c58 -17 148 -95 177 -153 33 -66 39 -155 16 -226 -18 -53 -180 -305 -254 -392
l-41 -49 -106 163 c-174 267 -202 341 -169 455 50 173 202 254 377 202z m779
-90 c2 -13 3 -321 1 -685 l-3 -663 -42 0 c-41 0 -43 1 -59 48 -26 71 -53 109
-102 143 l-44 32 24 45 c47 89 28 170 -62 260 -100 100 -94 69 -94 457 0 187
3 350 6 363 6 22 8 22 189 22 182 0 183 0 186 -22z m-1705 -60 c12 -39 54 -57
90 -37 22 11 27 10 46 -8 19 -19 20 -25 9 -52 -14 -32 -8 -51 14 -51 20 0 55
-49 55 -76 0 -13 -9 -28 -21 -35 l-21 -11 21 -22 c17 -18 20 -30 15 -57 -8
-38 -19 -49 -50 -49 -24 0 -41 -40 -22 -51 8 -5 7 -15 -6 -33 -17 -27 -52 -37
-43 -12 5 12 -2 12 -40 -1 -28 -10 -48 -23 -50 -34 -5 -20 -33 -27 -33 -9 0
15 -47 12 -53 -2 -4 -9 -6 -8 -6 2 -1 9 -17 23 -36 32 -30 13 -37 14 -55 1
-18 -13 -24 -13 -45 1 -27 18 -32 35 -14 53 19 19 -8 56 -36 49 -21 -5 -25 -1
-34 31 -14 51 -14 52 11 72 22 19 18 41 -9 41 -13 0 -14 8 -9 42 8 51 12 58
36 58 25 0 41 31 34 67 -4 21 0 33 15 47 19 17 24 18 46 6 42 -22 83 -1 99 51
3 12 16 17 44 17 36 1 40 -2 48 -30z m3322 -580 l-3 -562 -27 -7 -27 -7 -3
488 -3 488 -46 46 -47 46 -310 0 c-301 0 -311 -1 -317 -20 -3 -11 -3 -24 0
-30 4 -6 108 -10 284 -10 l279 0 6 -292 c4 -161 5 -384 4 -494 -3 -182 -5
-204 -22 -223 -19 -21 -24 -21 -504 -21 -485 0 -486 0 -509 22 l-23 21 0 393
c0 365 1 396 20 457 38 122 168 228 315 255 28 6 249 10 493 11 l443 1 -3
-562z m1554 470 c21 -48 48 -76 172 -171 20 -15 36 -32 36 -38 0 -5 -26 -35
-59 -67 -52 -51 -59 -62 -65 -109 -8 -60 -13 -63 -104 -63 -58 0 -69 -3 -94
-27 l-29 -27 -25 27 c-22 24 -32 27 -87 27 -93 0 -107 14 -107 101 0 103 -16
132 -109 196 -9 6 19 52 78 126 l62 77 154 -1 155 -1 22 -50z m773 16 c16 -8
37 -13 47 -11 13 4 15 1 9 -17 -6 -16 -1 -30 25 -60 55 -65 63 -162 16 -225
-26 -36 -110 -80 -151 -81 -36 0 -121 35 -121 50 0 5 -9 11 -19 15 -11 3 -18
12 -15 19 3 7 -3 19 -13 27 -17 13 -17 13 -3 -6 14 -19 14 -19 -2 -6 -25 19
-40 82 -32 131 11 67 99 152 178 170 46 11 48 11 81 -6z m236 -21 c37 -22 50
-60 38 -110 -5 -21 -9 -155 -9 -299 1 -252 0 -261 -20 -279 -21 -19 -22 -19
-65 5 l-44 24 -24 -22 c-27 -25 -69 -29 -87 -7 -10 12 -10 21 0 44 14 35 50
46 110 36 46 -8 57 5 41 48 -10 26 -13 27 -86 27 -91 0 -131 -15 -172 -65 -28
-34 -33 -36 -54 -24 -13 7 -54 22 -92 33 l-68 21 34 50 c19 28 41 62 50 77 16
26 18 27 52 13 41 -18 154 -19 210 -3 22 6 49 12 60 12 16 1 21 10 27 51 3 28
13 69 21 92 16 44 10 137 -13 198 -14 36 -5 62 28 80 34 18 29 18 63 -2z
m-1594 -250 c30 -18 63 -75 63 -112 0 -20 -10 -42 -29 -63 l-29 -33 -155 -5
c-86 -3 -158 -7 -161 -11 -3 -3 -3 -22 1 -42 l6 -37 121 0 c145 -1 189 -9 227
-46 45 -44 54 -84 30 -139 -26 -58 -63 -75 -166 -75 l-75 0 0 -96 0 -96 -35
-35 c-42 -42 -78 -42 -109 0 -20 27 -20 29 -3 38 14 8 17 24 17 85 0 66 -2 75
-17 73 -70 -7 -121 2 -147 26 -14 13 -26 19 -26 14 0 -7 -50 -10 -147 -7 -167
3 -188 11 -219 76 -15 32 -15 41 -3 76 26 75 92 97 301 100 l66 1 6 38 c4 21
4 42 1 48 -4 5 -74 9 -157 9 l-150 0 -35 35 c-33 33 -35 39 -30 81 6 54 38 93
86 103 18 3 193 6 389 6 265 0 363 -3 379 -12z m-4759 -206 c12 -11 22 -31 22
-43 0 -13 32 -61 76 -115 132 -162 152 -200 106 -198 -9 0 -62 55 -116 121
-55 67 -102 116 -104 110 -2 -7 -23 -12 -47 -12 -56 0 -85 28 -85 80 0 77 88
111 148 57z m1081 -19 l20 -33 -222 -6 c-122 -4 -226 -4 -230 -2 -5 3 6 20 24
39 l33 34 177 0 177 0 21 -32z m631 -130 c59 -41 75 -72 75 -148 0 -63 -3 -71
-30 -100 -41 -43 -76 -60 -124 -60 -181 0 -241 217 -87 311 44 27 124 25 166
-3z m3530 -47 l31 -58 57 -7 57 -7 41 46 42 47 30 -16 30 -16 -13 -49 -13 -50
44 -36 c24 -20 58 -56 74 -81 23 -32 38 -44 56 -44 38 0 62 -17 83 -58 26 -51
34 -96 27 -146 -8 -53 -52 -107 -89 -111 -23 -3 -27 0 -27 23 l0 27 -16 -30
c-28 -54 -64 -94 -133 -149 -38 -30 -92 -88 -121 -128 -30 -40 -58 -76 -64
-80 -6 -4 -30 -8 -53 -8 -38 0 -44 4 -79 53 -21 28 -55 73 -77 100 l-39 47
-31 -26 -31 -26 -23 26 c-29 35 -29 60 1 83 l24 19 -37 76 -36 76 -67 18 -68
18 0 43 c0 30 4 43 14 43 7 0 28 3 46 7 27 5 32 3 25 -8 -6 -10 -3 -9 11 2 10
9 27 19 37 22 9 4 17 13 17 21 0 9 12 40 27 71 l27 55 -22 23 c-29 30 -28 38
8 72 l30 29 23 -22 c44 -41 83 -18 78 47 -1 21 5 56 14 79 24 60 47 56 85 -17z
m-4306 -99 c91 -41 145 -126 146 -230 0 -76 -30 -144 -97 -221 -52 -60 -226
-196 -231 -181 -2 5 -9 10 -15 10 -17 0 -162 110 -223 169 -29 28 -62 72 -75
98 -60 120 2 296 97 279 25 -5 38 -1 60 17 96 80 235 104 338 59z m4934 -54
c61 -31 119 -92 150 -158 21 -44 26 -71 26 -135 1 -93 -27 -165 -88 -233 -42
-46 -82 -67 -148 -76 -43 -7 -50 -5 -75 20 l-27 27 21 16 c12 9 37 28 56 43
52 40 97 137 97 207 -1 99 -52 181 -142 227 -27 13 -48 27 -48 31 0 4 10 17
22 30 29 31 95 31 156 1z m-5590 -84 c27 -31 28 -44 1 -78 -24 -30 -63 -34
-97 -10 -31 21 -29 68 3 100 30 30 58 26 93 -12z m-223 -225 c33 -42 41 -59
32 -68 -8 -8 -103 -11 -331 -11 l-321 0 -60 72 c-33 39 -84 101 -113 137 l-53
66 328 5 328 5 73 -75 c40 -41 93 -100 117 -131z m6531 143 c6 -4 16 -23 23
-44 10 -31 20 -39 67 -59 31 -12 74 -37 96 -56 22 -18 46 -33 53 -33 10 0 13
-14 12 -47 -1 -27 2 -55 6 -63 6 -13 0 -16 -33 -17 -23 -1 -50 -5 -60 -8 -15
-5 -24 3 -39 34 -16 30 -33 45 -75 65 -56 27 -110 34 -121 16 -4 -6 -10 -8
-14 -6 -4 3 -33 -19 -64 -48 -43 -39 -57 -60 -59 -82 -4 -81 11 -120 62 -161
l28 -23 -24 -57 c-18 -44 -28 -57 -42 -56 -34 4 -102 56 -109 82 -14 59 -31
79 -75 87 -24 4 -47 7 -52 5 -4 -1 -6 14 -4 34 2 19 0 35 -4 35 -14 0 -9 47 6
60 21 17 60 8 68 -15 5 -18 6 -18 7 3 1 13 8 37 17 54 11 21 14 43 10 71 -5
32 -4 38 8 34 8 -3 32 11 57 34 24 22 68 49 101 60 53 20 59 25 68 60 10 35
22 45 60 48 8 0 20 -3 26 -7z m-4867 -79 l51 -26 26 24 c38 36 99 31 136 -10
22 -25 28 -41 28 -79 0 -26 -7 -55 -14 -65 -18 -24 -78 -33 -116 -17 -29 12
-31 11 -73 -36 -41 -45 -46 -48 -103 -51 -46 -3 -66 0 -90 15 -60 38 -85 142
-50 209 34 67 118 82 205 36z m-412 -29 c7 -19 -28 -95 -95 -206 -43 -73 -63
-91 -76 -69 -5 8 92 207 130 269 17 26 32 28 41 6z m2916 -125 c207 -26 294
-43 349 -69 42 -20 264 -188 256 -195 -1 -1 -77 14 -168 35 -207 47 -425 88
-513 97 -56 5 -67 3 -67 -9 0 -20 64 -37 454 -123 296 -66 378 -89 443 -127
40 -24 42 -32 6 -25 -527 112 -1037 204 -1203 218 -143 11 -249 7 -346 -16
-32 -7 -60 -12 -62 -10 -2 2 20 17 49 34 49 28 154 61 240 75 55 10 72 27 78
82 l6 49 100 5 c128 6 184 3 378 -21z m-3842 -175 c31 -42 44 -52 77 -57 33
-6 51 -20 119 -94 43 -49 83 -94 87 -100 6 -10 -37 -13 -198 -13 l-206 0 0
203 1 202 41 -45 c22 -25 58 -68 79 -96z m2959 124 c0 -5 -4 -8 -9 -8 -6 0
-37 -23 -70 -50 -68 -57 -130 -134 -164 -205 l-23 -47 -39 64 c-48 78 -156
185 -227 226 l-53 31 292 -2 c161 -1 293 -5 293 -9z m-805 -87 c94 -30 207
-78 239 -103 16 -13 9 -13 -60 -5 -95 10 -263 2 -388 -19 -119 -20 -471 -109
-761 -190 -126 -36 -252 -71 -280 -79 -100 -28 -68 0 95 84 132 68 201 96 470
193 429 155 522 171 685 119z m4379 -43 c50 -25 88 -63 111 -109 34 -67 36
-116 5 -141 l-24 -20 -17 54 c-12 36 -30 63 -56 86 -50 43 -75 53 -123 47
-116 -15 -189 -97 -190 -212 0 -59 6 -63 55 -35 40 23 135 92 135 99 0 3 -20
3 -45 0 -25 -4 -45 -3 -45 1 0 5 14 21 30 37 43 41 89 40 135 -5 78 -76 25
-180 -125 -241 -76 -31 -202 -50 -214 -31 -3 5 -13 43 -21 83 -32 152 30 316
139 369 81 39 194 47 250 18z m-5733 -50 c4 -6 42 -13 85 -15 44 -2 95 -9 114
-15 l35 -12 -50 -12 c-27 -7 -77 -13 -110 -13 -52 -1 -62 -4 -70 -23 -7 -16
-17 -22 -32 -20 -18 2 -35 -17 -97 -110 -75 -114 -146 -195 -146 -168 0 8 29
74 65 146 55 109 64 134 56 155 -11 30 8 81 36 98 21 14 104 6 114 -11z m2729
-49 c125 -21 318 -69 500 -125 406 -125 534 -169 850 -297 102 -41 210 -82
240 -92 30 -10 60 -21 66 -26 11 -9 114 -174 114 -183 0 -18 -165 29 -640 184
-834 272 -1190 370 -1349 370 -85 0 -271 -42 -271 -62 0 -4 4 -8 8 -8 5 0 23
-14 41 -32 121 -118 87 -275 -78 -358 -138 -69 -458 -67 -598 3 -59 31 -119
96 -134 148 -23 75 20 189 89 235 l27 19 -90 10 c-54 7 -127 8 -185 4 -139
-11 -523 -111 -1225 -320 -494 -147 -539 -160 -624 -180 -46 -11 -86 -18 -88
-15 -6 6 102 172 118 182 48 30 622 224 882 298 609 174 813 218 1007 220 145
1 194 -4 280 -30 81 -25 144 -59 175 -95 l27 -33 -84 -20 c-120 -31 -193 -78
-229 -148 -51 -100 14 -200 161 -246 42 -13 91 -17 210 -17 138 1 162 3 213
24 107 42 168 127 146 204 -13 47 -68 108 -125 139 -54 29 -155 58 -203 58
-61 0 -25 49 84 115 164 98 394 123 685 74z m-3187 -6 c-13 -2 -35 -2 -50 0
-16 2 -5 4 22 4 28 0 40 -2 28 -4z m-818 -85 c44 -17 77 -40 125 -88 82 -82
116 -145 131 -243 20 -136 -5 -201 -201 -517 -96 -154 -227 -340 -240 -340 -5
0 -37 42 -71 93 -34 50 -111 163 -172 250 -135 195 -171 264 -188 356 -26 146
19 290 120 392 94 93 202 131 351 124 58 -2 105 -11 145 -27z m6300 -3 c44
-43 22 -99 -42 -111 -31 -6 -39 -3 -55 16 -27 33 -23 75 8 99 35 27 59 26 89
-4z m-272 -125 c51 -57 26 -131 -51 -146 -43 -9 -72 0 -117 36 -37 30 -39 30
-159 30 -93 0 -127 4 -142 15 -19 15 -19 15 0 30 15 11 48 15 135 15 110 0
119 2 171 30 71 39 122 36 163 -10z m477 0 c0 -5 -9 -6 -20 -3 -11 3 -17 9
-15 14 7 10 35 1 35 -11z m-2467 -134 c370 -124 691 -234 852 -293 121 -45
130 -50 133 -75 2 -16 -1 -28 -5 -28 -5 0 -99 31 -209 69 -109 37 -269 92
-354 121 -85 30 -283 92 -440 139 l-285 87 -3 37 c-3 29 0 37 13 37 9 0 143
-42 298 -94z m-3459 25 c39 -43 -9 -133 -63 -116 -50 16 -69 79 -34 117 21 24
75 23 97 -1z m2867 -20 c40 -40 40 -86 -1 -128 -41 -42 -106 -63 -210 -69
-163 -10 -289 28 -323 98 -20 41 -15 61 26 106 20 22 25 22 250 22 l229 0 29
-29z m-803 -19 l21 -19 1 -1079 1 -1079 -35 -6 c-20 -3 -38 -4 -41 -1 -7 8 -6
2167 1 2186 8 21 26 20 52 -2z m1235 -88 c234 -74 319 -106 308 -117 -13 -13
-110 2 -285 44 -159 38 -166 42 -166 79 0 39 5 38 143 -6z m-1455 -4 c20 0 22
-5 22 -53 l0 -54 -47 -1 c-58 -1 -220 -42 -306 -77 -34 -14 -86 -41 -114 -60
l-53 -35 0 54 c0 52 2 56 43 89 51 42 102 68 188 97 77 27 196 50 224 44 11
-2 30 -4 43 -4z m4090 -44 c24 -21 88 -107 325 -431 l125 -170 -50 -3 c-30 -2
-56 2 -66 10 -49 40 -452 548 -452 570 0 5 11 20 25 34 29 29 54 26 93 -10z
m-458 -53 c37 -47 4 -113 -55 -113 -59 0 -92 66 -55 113 16 20 30 27 55 27 25
0 39 -7 55 -27z m1139 -31 c25 -26 86 -107 134 -180 l88 -131 -3 -65 -3 -64
-115 166 c-63 92 -127 181 -143 199 l-29 33 -209 0 -208 0 -24 33 c-13 17 -27
38 -31 45 -6 9 46 12 245 12 l253 0 45 -48z m-4749 -127 l0 -75 -32 0 c-94 0
-258 -43 -361 -94 l-62 -31 -3 -214 c-2 -201 -1 -213 15 -205 10 4 69 25 132
47 92 31 134 40 213 44 l98 6 0 -227 0 -226 -36 15 c-49 20 -58 19 -91 -9 -28
-24 -28 -25 -8 -40 29 -22 73 -30 90 -16 8 6 21 10 30 8 15 -3 16 -27 15 -218
0 -118 -2 -215 -3 -216 -1 -1 -48 -8 -104 -14 -56 -6 -128 -18 -159 -26 -76
-19 -205 -72 -227 -91 -9 -9 -19 -14 -21 -12 -2 2 -6 339 -8 747 l-3 744 30
24 c99 79 303 151 438 153 l57 1 0 -75z m1750 10 c96 -20 200 -40 230 -46 129
-24 444 -111 758 -210 28 -9 32 -15 32 -45 l0 -34 -710 0 -710 0 0 192 0 191
113 -6 c67 -4 183 -21 287 -42z m-1175 10 c33 -8 84 -15 114 -16 l53 -3 -7
-49 c-3 -28 -7 -281 -8 -564 l-2 -513 30 -4 c125 -18 178 -30 195 -44 20 -16
11 -17 -147 -17 -164 -1 -170 -2 -245 -32 l-78 -31 0 650 c0 615 1 650 18 643
9 -3 44 -13 77 -20z m4123 -70 c29 -38 95 -132 147 -208 l94 -137 -167 2 -166
3 -113 150 c-62 83 -131 176 -153 208 l-40 57 173 -2 172 -3 53 -70z m-5424
59 c24 -9 19 -23 -5 -17 -29 8 -40 -13 -37 -67 l2 -45 -109 -6 c-155 -9 -259
-41 -369 -114 l-29 -19 5 59 c5 53 9 62 44 93 48 42 144 88 220 106 60 14 249
21 278 10z m-695 -70 c28 -35 26 -56 -5 -93 -32 -38 -66 -40 -99 -6 -30 30
-32 64 -4 99 15 19 30 26 54 26 24 0 39 -7 54 -26z m-1793 -89 c5 -28 12 -36
40 -45 29 -10 37 -9 60 9 25 20 28 20 45 5 28 -25 33 -53 14 -74 -16 -18 -16
-22 6 -75 21 -52 26 -56 51 -53 30 5 38 -6 38 -52 0 -25 -5 -30 -34 -35 -23
-5 -37 -15 -47 -35 -16 -33 -99 -123 -134 -146 -20 -13 -23 -22 -18 -42 4 -16
2 -23 -5 -18 -6 3 -13 2 -17 -4 -3 -5 -19 -10 -36 -10 -25 0 -29 4 -29 29 0
45 -66 59 -92 19 -13 -20 -18 -21 -42 -10 -21 9 -26 18 -26 46 0 26 -5 36 -20
41 -11 4 -18 11 -15 16 3 5 -1 6 -9 3 -13 -5 -16 2 -16 39 0 45 -10 61 -40 62
-16 0 -28 39 -22 73 3 15 11 22 27 22 27 0 35 17 35 73 0 36 4 44 30 59 24 14
30 24 30 53 0 31 3 35 25 35 14 0 25 -4 25 -9 0 -16 29 -20 60 -10 21 8 30 17
30 33 0 30 7 36 46 36 30 0 34 -3 40 -35z m6294 0 c17 -20 4 -62 -21 -70 -15
-5 -28 -1 -42 14 -19 18 -19 23 -7 46 15 28 51 33 70 10z m-4833 -26 c6 -6 9
-18 6 -25 -4 -11 -43 -14 -194 -14 -177 0 -189 1 -189 18 0 10 3 22 7 25 12
12 358 8 370 -4z m5547 -9 c23 -8 26 -15 26 -57 0 -27 4 -53 8 -58 4 -6 32
-21 62 -35 33 -15 80 -50 118 -87 34 -35 68 -63 74 -63 6 0 32 10 56 22 l45
21 24 -27 c12 -15 23 -38 23 -51 0 -13 3 -30 6 -38 4 -11 -9 -20 -46 -32 -51
-17 -69 -39 -75 -89 -2 -20 42 -52 87 -62 27 -5 28 -8 22 -42 -14 -76 -20 -84
-61 -76 -54 9 -106 42 -99 63 3 9 -2 5 -11 -9 -37 -55 -102 -107 -167 -135
l-67 -28 4 -54 c4 -49 2 -55 -23 -73 -34 -24 -43 -25 -93 -3 l-39 18 4 53 c4
50 3 54 -24 68 -15 8 -28 17 -28 20 0 3 5 2 12 -2 7 -4 8 -3 4 5 -4 6 -11 9
-16 6 -18 -11 -115 81 -144 137 -35 69 -42 129 -26 210 22 114 86 202 183 253
35 19 37 22 37 71 0 53 9 68 45 77 34 8 53 7 79 -3z m-4529 -10 l30 -8 -27 -1
c-26 -1 -28 -4 -28 -41 0 -37 -2 -39 -37 -46 -88 -16 -101 -50 -23 -60 49 -6
50 -7 50 -40 l0 -34 -91 0 c-130 0 -349 -65 -349 -103 0 -33 22 -34 103 -4 71
26 99 31 212 35 l130 4 3 -76 c3 -89 14 -82 -148 -90 -107 -5 -230 -35 -312
-77 -21 -11 -40 -19 -43 -19 -3 0 -5 96 -5 214 l0 215 30 21 c48 34 171 87
230 99 30 6 64 13 75 15 34 7 169 4 200 -4z m4762 -66 c39 -30 39 -32 12 -79
l-21 -35 -40 39 -40 39 23 31 c12 17 25 31 27 31 3 0 20 -11 39 -26z m-497
-15 l26 -32 -40 -37 -40 -38 -17 28 c-10 15 -23 31 -29 35 -12 8 45 75 64 75
5 0 21 -14 36 -31z m-447 -41 c28 -21 32 -70 7 -95 -44 -47 -120 -19 -120 44
0 50 71 82 113 51z m-4785 -30 c5 -7 11 -22 13 -32 2 -11 17 -23 34 -28 17 -5
47 -17 68 -25 35 -15 38 -15 51 2 13 18 15 18 40 2 30 -20 34 -42 8 -56 -18
-10 -18 -12 1 -75 14 -43 26 -66 39 -69 27 -8 26 -87 -2 -94 -11 -3 -20 -12
-20 -20 0 -8 -10 -37 -22 -65 -20 -47 -20 -52 -5 -63 23 -17 21 -48 -4 -64
-20 -12 -24 -10 -43 14 l-21 26 -66 -21 c-50 -17 -70 -28 -78 -47 -9 -21 -14
-23 -26 -13 -8 7 -15 18 -15 25 0 7 -21 18 -47 24 -27 7 -56 17 -65 22 -13 7
-18 5 -18 -6 0 -8 -9 -19 -21 -26 -17 -9 -25 -7 -45 12 -23 22 -23 22 -4 46
19 24 18 25 -11 86 -16 34 -35 63 -43 65 -15 3 -26 33 -26 75 0 22 4 27 25 27
15 0 25 6 25 15 0 8 10 35 22 59 20 43 21 46 5 64 -21 23 -21 39 -3 58 18 18
40 18 55 0 10 -12 19 -11 59 4 26 11 55 21 65 24 10 3 17 15 17 29 0 13 3 27
7 30 11 11 40 8 51 -5z m-479 -70 c14 -24 14 -30 -2 -62 -14 -31 -22 -36 -49
-36 -39 0 -51 7 -67 37 -15 30 -14 36 10 67 29 37 86 34 108 -6z m4342 -8
l609 0 0 -40 0 -40 -712 2 -713 3 -3 37 -3 37 48 4 c26 3 75 3 107 1 32 -2
333 -4 667 -4z m1186 -31 c19 -12 44 -19 57 -17 l23 5 -19 -61 c-25 -76 -20
-188 10 -258 14 -30 16 -45 8 -42 -6 2 -34 -7 -60 -21 -55 -29 -67 -25 -92 33
-22 54 -18 68 26 86 22 9 47 16 55 16 19 0 29 42 18 77 -8 22 -20 31 -64 44
-30 9 -54 22 -53 28 1 6 2 23 3 39 1 27 35 92 47 92 4 0 22 -9 41 -21z m-2148
-54 l-2 -65 860 0 c474 0 868 -3 877 -6 14 -6 16 -66 16 -630 l0 -624 -39 0
-38 0 -7 61 c-3 34 -6 298 -6 585 l0 524 -830 0 -830 0 0 -584 0 -584 -32 -5
c-18 -2 -35 -3 -38 0 -7 6 -12 1343 -5 1371 4 18 12 22 41 22 l35 0 -2 -65z
m-4167 -105 c25 -26 29 -36 24 -62 -7 -37 -23 -57 -53 -69 -53 -20 -123 42
-107 94 21 69 86 87 136 37z m7863 -340 l0 -255 -235 -3 c-182 -2 -240 1 -254
11 -16 12 -18 34 -19 242 -1 127 1 238 5 248 7 16 26 17 255 15 l248 -3 0
-255z m-7172 223 l118 -28 -3 -29 c-3 -29 -6 -31 -103 -54 -76 -18 -122 -22
-193 -20 -105 3 -122 14 -94 60 9 15 14 30 11 33 -7 7 -69 -17 -69 -27 0 -4
-32 -8 -70 -8 -56 0 -72 3 -77 16 -13 34 25 46 124 40 72 -4 92 -2 96 8 5 12
66 29 127 35 8 1 68 -11 133 -26z m1532 -2 c-18 -7 -20 -16 -17 -75 l4 -66
-99 0 c-83 0 -115 -5 -198 -31 -131 -41 -155 -54 -155 -83 0 -12 2 -25 5 -28
3 -3 47 11 98 30 87 34 99 36 232 38 77 2 132 1 123 -2 -15 -5 -18 -17 -18
-73 l0 -68 -107 -6 c-108 -5 -231 -32 -298 -64 -25 -12 -35 -23 -35 -39 0 -13
3 -25 8 -27 4 -3 46 8 95 24 98 33 279 49 352 31 33 -8 35 -10 13 -11 -28 -1
-28 -2 -28 -71 l0 -70 -94 0 c-109 0 -257 -33 -348 -78 l-58 -29 0 306 0 306
83 32 c135 53 180 62 327 62 75 0 126 -4 115 -8z m2713 -133 c-3 -20 -10 -23
-48 -25 -102 -6 -130 -13 -130 -34 0 -17 8 -19 68 -21 37 0 73 -1 80 -1 7 1
12 -11 12 -28 l0 -29 -80 0 c-79 0 -80 0 -80 -25 0 -25 1 -25 79 -25 72 0 80
-2 86 -21 4 -11 4 -23 2 -26 -8 -8 -547 -17 -547 -9 0 4 8 18 17 33 20 31 25
138 7 168 -7 11 -15 30 -19 43 l-6 22 281 0 281 0 -3 -22z m792 -17 l0 -40
-257 -3 c-375 -4 -363 8 -363 -350 l0 -238 -39 0 -39 0 -7 167 c-13 294 4 389
81 451 57 46 90 50 367 51 l257 1 0 -39z m782 -137 c-15 -19 -31 -34 -36 -34
-13 0 -66 51 -66 63 0 4 12 24 27 43 l26 35 38 -37 38 -37 -27 -33z m-6379 85
l57 -12 0 -47 0 -47 -46 -7 c-70 -9 -209 -7 -238 4 -32 12 -34 38 -4 49 16 6
18 10 8 16 -9 6 -20 -1 -35 -19 -19 -24 -27 -27 -71 -24 -45 3 -49 5 -49 28 0
23 4 25 65 32 36 4 90 13 120 21 69 19 121 20 193 6z m6871 -32 c24 -32 17
-52 -30 -79 l-29 -17 -24 35 -24 35 29 30 c33 35 49 34 78 -4z m-4737 7 c-3
-3 -12 -4 -19 -1 -8 3 -5 6 6 6 11 1 17 -2 13 -5z m3918 -91 c14 -57 -33 -90
-57 -38 -9 19 -8 29 6 49 19 30 42 25 51 -11z m-5377 -85 c40 -35 106 -38 181
-8 l49 19 59 -21 c76 -29 261 -32 307 -6 33 19 66 11 104 -24 21 -21 22 -28
22 -189 l0 -167 -29 29 c-17 16 -40 29 -54 29 -17 0 -32 11 -50 39 -28 42
-130 101 -174 101 -12 0 -23 4 -23 8 0 18 -156 -9 -215 -37 -109 -52 -185
-142 -185 -218 0 -62 108 -125 125 -73 3 11 13 20 21 20 30 0 4 17 -35 24 -50
8 -57 27 -30 83 24 49 62 82 135 115 58 26 176 31 237 9 46 -16 102 -63 123
-102 9 -19 22 -29 37 -29 21 0 22 -3 19 -90 -3 -91 -14 -116 -26 -59 -10 50
-81 114 -147 133 -54 16 -59 16 -112 -4 -68 -25 -133 -91 -143 -145 -3 -20 -4
-58 -1 -83 l5 -47 -66 -40 c-74 -44 -122 -82 -122 -96 0 -20 58 -7 120 26 115
63 108 61 133 37 13 -12 37 -27 55 -33 l32 -11 0 -89 c0 -71 -3 -89 -15 -89
-8 0 -35 -7 -61 -16 -45 -15 -48 -15 -96 10 -44 23 -62 26 -154 26 -96 0 -108
-2 -142 -25 -46 -31 -70 -32 -77 -2 -4 13 -4 232 -2 486 l5 462 22 24 c30 32
98 65 119 58 9 -4 31 -19 49 -35z m-404 -57 c15 -17 17 -60 14 -529 l-3 -510
-25 -21 c-29 -24 -177 -85 -204 -83 -10 0 -27 9 -37 18 -18 16 -19 39 -19 463
l0 446 29 60 c67 136 191 215 245 156z m5227 9 c17 -9 19 -22 19 -100 0 -107
10 -102 -170 -98 l-125 3 -3 60 c-2 33 -1 79 3 103 l6 42 125 0 c69 0 134 -5
145 -10z m-5563 -45 c23 -29 19 -56 -18 -129 -50 -97 -80 -81 -80 45 0 73 3
90 18 98 29 18 60 12 80 -14z m7089 -17 c31 -29 30 -72 -2 -103 -28 -29 -51
-31 -83 -9 -35 24 -45 59 -27 94 24 45 74 54 112 18z m-607 -383 l0 -375 -45
0 -45 0 0 195 c0 175 -2 195 -17 203 -40 21 -43 9 -43 -198 l0 -198 -49 -4
c-88 -6 -85 -10 -78 106 11 179 58 343 139 484 16 29 27 56 23 60 -13 12 -93
-90 -129 -162 -49 -102 -86 -261 -86 -375 l0 -54 -22 20 c-32 28 -87 59 -132
73 l-38 12 7 55 c26 208 148 394 313 477 73 37 125 53 175 55 l27 1 0 -375z
m237 320 c220 -108 372 -341 391 -602 l7 -93 -82 0 c-67 0 -81 3 -77 14 10 26
-16 198 -42 286 -41 137 -86 204 -116 174 -4 -3 7 -38 23 -77 45 -109 68 -201
75 -304 l7 -93 -64 0 -65 0 -11 143 c-13 158 -47 307 -91 401 -32 67 -67 115
-77 105 -3 -4 12 -60 34 -125 52 -155 69 -243 77 -397 l7 -127 -85 0 -85 0 -7
258 c-5 219 -9 462 -7 483 2 15 123 -15 188 -46z m-2982 21 l50 -23 -104 -7
c-122 -8 -223 -30 -268 -56 l-33 -19 0 33 c0 29 5 35 40 51 107 48 236 57 315
21z m1108 -6 c24 0 27 -4 27 -34 l0 -34 -287 -4 c-159 -2 -293 -2 -300 0 -18
6 -26 41 -13 57 16 19 34 20 305 17 132 -1 252 -2 268 -2z m-2680 -107 l-33
-4 0 -68 0 -68 -97 -6 c-121 -8 -247 -38 -335 -82 l-68 -33 0 82 0 82 64 32
c105 52 200 71 361 70 77 -1 125 -3 108 -5z m3137 -33 c10 -18 21 -20 105 -20
71 0 97 -4 109 -15 21 -21 30 -78 17 -104 -11 -20 -19 -21 -160 -21 -170 0
-161 -6 -161 95 0 50 4 66 18 74 28 17 60 13 72 -9z m2182 -68 c45 -70 68
-131 68 -183 0 -41 -20 -129 -30 -129 -3 0 -13 21 -22 48 -24 64 -55 112 -73
112 -20 0 -19 -9 14 -114 40 -127 45 -166 22 -166 -19 0 -64 31 -93 65 -51 58
-59 190 -17 284 20 47 80 141 89 141 3 0 22 -26 42 -58z m-7772 3 c0 -13 -7
-28 -15 -33 -39 -21 -117 -109 -141 -158 -24 -48 -26 -63 -22 -132 5 -83 17
-112 74 -187 l36 -48 -29 -23 c-15 -13 -31 -23 -35 -24 -14 0 -70 77 -101 140
-64 130 -35 289 71 393 47 45 126 97 150 97 6 0 12 -11 12 -25z m3190 -53 c0
-16 -13 -20 -87 -30 -49 -6 -97 -13 -108 -16 -123 -29 -208 -62 -282 -109 -44
-28 -59 -23 -49 16 7 29 90 78 188 111 77 26 167 40 281 44 49 2 57 0 57 -16z
m1960 1 c-1 -23 -22 -32 -93 -38 -61 -6 -80 -11 -88 -26 -9 -18 -5 -19 76 -19
l85 0 0 -35 0 -35 -85 0 c-77 0 -85 -2 -85 -19 0 -23 26 -31 111 -31 52 0 68
-4 73 -16 3 -9 4 -20 1 -24 -3 -5 -123 -9 -267 -10 -143 0 -265 -3 -269 -6
-13 -8 -11 3 7 38 23 43 23 157 1 191 -9 14 -17 29 -17 32 0 3 124 5 275 5
151 0 275 -3 275 -7z m-3624 -106 c43 -46 52 -94 28 -143 -32 -63 -72 -82
-161 -76 -63 5 -115 101 -94 173 13 43 53 86 84 91 55 8 111 -9 143 -45z m906
31 c97 -20 72 -34 -73 -42 -73 -4 -139 -11 -148 -16 -9 -4 -50 -18 -91 -30
-73 -21 -178 -73 -191 -93 -10 -14 -21 30 -14 53 15 49 194 119 330 130 50 4
99 8 109 8 11 1 46 -3 78 -10z m1648 -80 c55 -10 80 -23 80 -39 0 -6 -46 -7
-107 -3 -66 4 -124 2 -148 -4 -22 -6 -60 -14 -85 -17 -24 -4 -63 -13 -85 -21
-78 -29 -77 -29 -73 1 2 23 13 34 52 53 94 47 225 58 366 30z m1433 -57 l46
-60 -85 1 c-46 0 -84 3 -84 5 0 4 73 113 76 113 0 0 22 -27 47 -59z m-3850
-29 c7 -6 28 -14 47 -19 l35 -9 3 -87 3 -86 -43 -27 c-24 -15 -68 -44 -98 -64
-51 -34 -60 -37 -108 -32 l-52 5 0 83 c0 78 1 84 20 84 27 0 90 32 111 56 25
28 46 75 55 119 8 35 9 36 12 13 2 -14 9 -31 15 -36z m6439 44 c42 -18 104
-85 125 -135 20 -47 19 -141 -3 -183 -23 -46 -43 -67 -84 -88 -82 -41 -174
-30 -250 30 -28 22 -46 30 -60 25 -25 -8 -25 -5 1 51 30 63 95 127 146 142 36
11 48 10 93 -7 46 -18 52 -18 57 -4 4 10 -5 26 -25 45 -59 52 -176 33 -239
-40 -28 -32 -33 -34 -33 -16 0 11 15 50 33 85 24 48 42 69 72 86 47 27 116 30
167 9z m-4342 -56 c-8 -5 -19 -10 -25 -10 -5 0 -3 5 5 10 8 5 20 10 25 10 6 0
3 -5 -5 -10z m-3556 -6 c11 -4 16 -19 16 -48 0 -106 -55 -197 -220 -363 -131
-133 -158 -194 -105 -243 49 -46 127 -8 182 91 l26 46 57 -61 57 -60 41 18
c40 18 43 18 87 1 28 -10 66 -38 96 -69 l49 -51 -192 -5 c-176 -5 -200 -8
-271 -33 -95 -33 -127 -49 -191 -94 -56 -40 -57 -39 -83 47 -24 82 -21 182 10
257 39 96 95 167 230 291 64 59 124 158 135 225 6 32 13 43 32 48 14 4 26 7
27 8 1 1 8 -2 17 -5z m5956 -219 l0 -65 -1962 -2 -1963 -3 -92 -27 c-217 -64
-362 -176 -467 -361 -61 -109 -80 -195 -74 -336 6 -122 39 -226 103 -327 48
-74 148 -172 225 -219 67 -41 192 -89 260 -100 25 -4 54 -10 65 -13 11 -4 894
-8 1963 -9 l1942 -4 0 -67 0 -68 -1687 -2 c-929 -1 -1834 2 -2013 7 -371 10
-399 15 -575 101 -286 140 -465 418 -465 721 0 215 95 435 251 585 149 142
243 191 444 234 87 18 167 19 2068 19 l1977 1 0 -65z m460 -134 c-3 -132 -2
-138 17 -145 33 -13 43 21 43 142 0 100 2 113 16 108 9 -3 28 -6 43 -6 l28 0
2 -295 1 -295 -23 0 c-99 1 -273 71 -352 143 -44 40 -47 44 -34 65 12 19 10
28 -14 78 -25 50 -27 58 -13 66 11 6 16 23 16 50 0 36 6 47 50 90 l50 49 0
-39 c0 -55 45 -204 82 -274 36 -67 94 -138 113 -138 9 0 -1 29 -30 88 -68 137
-104 249 -119 364 l-5 47 42 3 c90 6 89 8 87 -101z m780 70 c0 -48 -41 -175
-76 -239 -44 -79 -141 -183 -214 -230 -64 -41 -163 -77 -237 -86 l-53 -7 0
108 c0 59 3 192 7 296 l6 187 84 0 c45 0 83 -4 83 -8 0 -5 -7 -57 -15 -118
-16 -117 -27 -164 -71 -291 -41 -122 -14 -127 44 -8 46 94 88 264 94 378 l2
47 68 0 c41 0 68 -4 68 -11 0 -35 -38 -166 -67 -233 -34 -77 -34 -104 -1 -91
36 14 117 225 118 307 0 26 2 27 68 30 85 4 92 2 92 -31z m-3392 -201 c1604 0
1605 0 1587 -20 -18 -20 -31 -20 -711 -20 -399 0 -703 -4 -717 -9 -32 -12 -42
-40 -22 -60 14 -14 93 -16 700 -19 l684 -2 -28 -48 -27 -47 -784 -3 c-551 -2
-787 -6 -797 -13 -17 -15 -17 -48 0 -55 7 -2 360 -6 784 -7 424 -1 774 -5 778
-9 4 -3 3 -26 0 -51 l-7 -44 -100 -7 c-56 -3 -515 -6 -1022 -6 -507 0 -996 0
-1088 0 -159 0 -168 -1 -178 -21 -9 -16 -8 -25 6 -40 17 -19 47 -19 1201 -19
l1183 0 0 -55 0 -55 -1024 0 c-918 0 -1026 -2 -1040 -16 -20 -19 -20 -29 0
-48 14 -14 123 -16 1050 -16 l1034 0 10 -25 c5 -14 13 -37 16 -50 l6 -25 -635
0 c-349 0 -642 -3 -651 -6 -22 -9 -20 -51 3 -64 13 -6 241 -10 670 -10 l649 0
48 -55 c26 -31 44 -59 40 -63 -4 -4 -752 -8 -1662 -10 -1492 -2 -1661 -1
-1717 14 -63 16 -151 58 -197 94 l-25 20 142 0 c115 0 145 3 157 16 9 8 16 19
16 24 0 5 -7 16 -16 24 -13 13 -45 16 -192 16 l-177 0 -28 50 -28 50 254 0
c216 0 256 2 267 15 10 12 10 21 1 41 l-11 25 -291 -2 c-161 -1 -294 2 -298 7
-5 5 -11 30 -14 57 l-5 47 293 0 c275 0 293 1 309 19 14 15 15 24 6 40 -10 20
-17 21 -282 21 -257 0 -270 1 -256 18 8 9 20 31 26 49 10 29 9 32 -11 36 -12
2 52 5 143 7 244 3 331 11 344 32 22 36 -5 43 -207 48 l-192 5 43 47 44 47
119 0 c88 0 127 5 149 16 34 18 37 27 14 49 -11 12 -36 16 -90 16 -41 0 -74 4
-74 9 0 19 143 52 194 45 16 -2 751 -4 1634 -4z m3856 -34 c49 -29 102 -101
112 -153 10 -55 -2 -121 -34 -182 -26 -50 -28 -60 -17 -81 26 -52 28 -70 6
-70 -27 0 -71 19 -98 44 -23 19 -23 19 -23 0 -1 -10 -16 -48 -34 -83 l-33 -64
-31 68 c-26 55 -35 66 -49 60 -55 -22 -105 -37 -110 -31 -3 3 6 28 19 56 l26
51 -34 56 c-78 131 -47 271 76 336 48 25 63 28 117 24 42 -3 76 -13 107 -31z
m-7150 -8 c23 -32 20 -65 -9 -93 -31 -32 -59 -32 -91 1 -28 27 -27 63 3 97 23
25 78 22 97 -5z m370 7 c51 -21 116 -89 145 -150 26 -55 40 -171 24 -199 -8
-14 -19 -1 -62 74 -82 142 -191 260 -191 207 0 -13 77 -146 149 -257 23 -35
38 -66 32 -68 -5 -2 -41 13 -79 32 -110 55 -156 126 -168 254 -9 95 7 122 70
122 24 0 60 -7 80 -15z m5075 -109 c0 -6 -10 -27 -23 -46 l-23 -34 -207 -3
-208 -3 17 28 c49 77 39 74 252 71 129 -2 193 -6 192 -13z m-64 -283 c0 -65 3
-133 7 -150 l8 -33 -224 0 c-249 0 -236 -4 -236 71 l0 39 163 0 c89 0 167 4
173 8 6 4 16 17 23 29 10 19 8 24 -14 39 -21 14 -49 16 -186 12 l-161 -4 6 36
c3 19 6 43 6 53 0 16 17 17 218 17 l217 0 0 -117z m1255 77 c29 -29 26 -74 -7
-99 -17 -14 -33 -19 -47 -15 -60 18 -75 77 -30 113 33 26 58 27 84 1z m-5513
-40 c1 -11 -2 -20 -8 -20 -10 0 -12 23 -2 33 9 9 9 10 10 -13z m-1352 -60 c39
-6 87 -15 108 -21 l37 -10 0 -65 c0 -59 -2 -65 -17 -59 -10 4 -54 14 -98 22
-98 19 -293 13 -375 -12 -124 -37 -299 -156 -337 -229 -9 -17 -26 -61 -38 -98
l-21 -67 -32 19 c-106 64 5 278 212 409 160 100 360 140 561 111z m655 -46
c40 -21 75 -45 77 -52 13 -33 -112 -102 -183 -102 -65 0 -224 96 -224 135 0
12 47 39 99 56 14 5 56 7 92 5 54 -3 80 -10 139 -42z m5261 -20 l28 -27 -26
-33 c-31 -41 -42 -42 -76 -6 -33 34 -33 39 -5 69 28 30 46 29 79 -3z m627 -18
c46 -24 65 -53 66 -99 1 -35 -2 -42 -18 -42 -12 0 -22 11 -30 34 -24 72 -111
100 -190 61 -37 -18 -48 -29 -57 -61 -20 -66 -70 -42 -53 25 8 32 65 84 102
92 15 3 32 8 37 10 19 7 117 -6 143 -20z m-6458 -119 l55 -13 3 -67 c3 -78 9
-76 -103 -47 -275 70 -589 -64 -630 -270 -14 -74 -13 -73 -43 -54 -47 29 -53
44 -46 104 9 75 47 142 120 209 73 66 168 117 267 143 58 14 97 17 197 13 69
-2 150 -11 180 -18z m6020 -7 c0 -6 18 -10 39 -10 22 0 51 -4 65 -10 l25 -9
-58 -56 c-32 -30 -63 -55 -69 -55 -17 0 -26 68 -13 96 9 21 8 24 -9 24 -15 0
-20 7 -20 25 0 23 2 24 20 15 11 -6 20 -15 20 -20z m710 5 c0 -8 -9 -19 -20
-25 -16 -9 -18 -15 -10 -30 14 -25 13 -53 -2 -72 -12 -15 -20 -10 -73 38 -67
62 -65 74 16 74 32 0 49 5 53 15 7 19 36 20 36 0z m-6057 -48 c13 -20 13 -25
-3 -45 -23 -28 -24 -28 -45 4 -16 24 -16 27 1 45 22 24 28 24 47 -4z m4837 6
c60 -6 68 -10 103 -49 l39 -43 -248 2 -248 2 -23 40 c-12 22 -23 43 -23 48 0
9 311 9 400 0z m914 -18 c95 -16 205 -104 249 -198 38 -80 44 -180 17 -264
-12 -37 -38 -89 -57 -114 -34 -45 -126 -110 -160 -113 -10 0 -21 -5 -24 -9 -3
-4 -44 -8 -90 -8 -116 -1 -185 26 -260 100 -91 91 -125 212 -95 331 29 111 98
196 203 249 42 21 134 41 163 36 8 -2 33 -6 54 -10z m581 -30 c30 -30 32 -64
4 -99 -40 -51 -119 -18 -119 50 0 66 69 96 115 49z m-7016 -106 l71 -23 0 -64
c0 -57 -2 -64 -17 -59 -125 40 -172 48 -258 44 -164 -8 -267 -69 -305 -179
-11 -32 -20 -67 -20 -78 0 -25 -1 -25 -52 1 l-41 21 6 63 c18 228 329 366 616
274z m440 5 c27 -6 32 -11 29 -33 -3 -24 -7 -26 -64 -29 -57 -3 -62 -1 -68 20
-9 34 -8 36 17 41 37 7 53 7 86 1z m5341 -57 l55 -32 -245 -5 -245 -5 -47 30
c-26 17 -47 33 -47 38 -1 4 106 7 237 7 l237 0 55 -33z m1648 -249 c165 -237
177 -257 167 -266 -8 -9 -612 -15 -643 -7 -33 8 -25 25 81 190 166 259 218
329 232 313 7 -7 81 -111 163 -230z m-7423 114 l60 -20 3 -67 c2 -52 0 -66
-10 -62 -142 59 -262 67 -350 24 -48 -24 -59 -34 -77 -77 -11 -27 -21 -58 -21
-69 0 -25 0 -25 -44 -5 -41 20 -53 61 -36 126 22 79 86 138 180 165 62 18 219
10 295 -15z m585 -50 c0 -4 31 -55 68 -113 37 -57 80 -125 95 -151 l28 -48
-196 0 c-111 0 -195 4 -195 9 0 10 61 115 137 239 40 64 63 88 63 64z m-572
-136 l52 -17 0 -63 0 -63 -57 20 c-108 37 -216 18 -251 -42 -14 -25 -21 -29
-42 -24 -36 9 -49 32 -50 84 0 52 26 89 82 115 42 19 192 13 266 -10z m898
-51 c34 -52 -31 -111 -76 -70 -38 34 -18 95 30 95 21 0 35 -8 46 -25z m5912
-257 c9 -9 12 -192 12 -760 l0 -748 -3425 0 -3425 0 0 760 0 760 3413 0 c2641
0 3416 -3 3425 -12z m-6980 -277 c31 -22 62 -92 62 -140 0 -36 -34 -87 -72
-111 -117 -71 -266 50 -217 177 35 92 149 130 227 74z m7282 -1 c56 -40 77
-147 40 -207 -54 -89 -201 -80 -246 15 -21 44 -14 123 13 160 45 62 131 76
193 32z"/>
<path d="M4575 9276 c-28 -43 8 -79 51 -51 16 10 21 21 17 33 -17 47 -44 55
-68 18z"/>
<path d="M5420 9000 l0 -100 90 0 c76 0 93 3 110 20 43 43 34 108 -22 155 -26
22 -39 25 -104 25 l-74 0 0 -100z"/>
<path d="M4095 8993 c-31 -8 -40 -20 -25 -38 14 -17 79 -11 92 9 13 20 -29 38
-67 29z"/>
<path d="M6398 8913 c-15 -4 -17 -23 -20 -144 l-3 -139 101 0 c83 0 101 3 101
15 0 12 -14 15 -61 16 -34 1 -69 0 -79 -1 -16 -1 -17 2 -8 19 11 19 105 101
138 120 10 5 16 25 17 62 l1 54 -85 2 c-47 0 -93 -1 -102 -4z m122 -61 c-14
-9 -41 -32 -62 -50 -33 -30 -37 -31 -42 -14 -4 11 -5 33 -4 51 l2 31 66 -1
c64 0 65 0 40 -17z"/>
<path d="M3283 8725 c-75 -34 -110 -128 -78 -210 46 -122 209 -140 289 -32 16
22 21 43 21 92 0 68 -15 99 -68 139 -34 25 -120 31 -164 11z m121 -96 c55 -44
17 -134 -54 -127 -43 4 -75 45 -66 82 15 62 72 83 120 45z"/>
<path d="M3940 8651 c0 -55 4 -102 8 -105 5 -3 18 -2 30 1 21 5 22 11 22 104
l0 99 -30 0 -30 0 0 -99z"/>
<path d="M4080 8644 l0 -105 28 3 27 3 3 103 3 102 -31 0 -30 0 0 -106z"/>
<path d="M3958 8383 c-19 -5 -32 -33 -20 -45 11 -11 154 -22 186 -14 40 10 36
51 -5 60 -34 7 -134 6 -161 -1z"/>
<path d="M3970 8247 c-13 -7 -35 -28 -47 -46 -58 -86 6 -201 112 -201 134 0
179 162 66 237 -38 26 -92 30 -131 10z m102 -64 c39 -35 8 -123 -43 -123 -23
0 -59 47 -59 76 0 52 64 82 102 47z"/>
<path d="M2405 8586 c-72 -32 -114 -117 -94 -189 5 -21 26 -53 44 -72 68 -67
153 -65 228 4 36 34 41 44 44 92 5 72 -24 125 -87 157 -50 25 -91 27 -135 8z
m129 -73 c48 -48 47 -104 -4 -154 -34 -35 -79 -38 -120 -9 -33 24 -54 77 -44
114 18 74 115 103 168 49z"/>
<path d="M2434 8475 c-27 -27 -26 -59 4 -82 24 -19 38 -16 61 14 23 28 20 59
-7 81 -22 17 -29 15 -58 -13z"/>
<path d="M4994 8486 c-98 -31 -174 -111 -194 -205 -30 -142 30 -274 154 -339
46 -24 61 -27 156 -27 l105 0 29 -33 c33 -37 65 -48 95 -32 29 15 27 54 -5 95
l-26 35 26 31 c74 88 93 214 47 317 -29 65 -104 134 -168 156 -55 19 -162 20
-219 2z m202 -80 c202 -94 151 -386 -72 -412 -132 -16 -254 88 -254 216 0 160
176 266 326 196z"/>
<path d="M5028 8248 c-28 -23 -29 -48 -3 -74 31 -31 49 -30 74 2 28 35 5 84
-39 84 -9 0 -23 -6 -32 -12z"/>
<path d="M5480 8120 c0 -336 0 -339 -22 -360 -21 -19 -33 -20 -372 -20 -193 0
-357 -4 -364 -9 -8 -5 -12 -17 -10 -27 3 -18 21 -19 406 -22 l402 -2 20 32
c19 31 20 51 20 374 0 318 -1 342 -18 357 -10 10 -28 17 -40 17 l-22 0 0 -340z"/>
<path d="M7260 8615 c-19 -8 -55 -14 -80 -15 -68 -1 -88 -9 -95 -38 -19 -82
-27 -102 -39 -102 -31 0 -36 -26 -10 -61 16 -23 29 -61 37 -109 l12 -75 63 -5
c45 -4 67 -10 77 -23 20 -28 52 -28 92 -1 20 13 49 24 64 24 25 0 29 4 29 27
0 34 39 91 89 128 l38 29 -31 21 c-17 11 -64 63 -105 115 -40 52 -81 96 -90
96 -9 1 -32 -4 -51 -11z m59 -81 c15 -9 44 -42 65 -75 47 -72 44 -88 -23 -161
-48 -52 -50 -53 -100 -51 -67 3 -106 25 -131 73 -53 103 15 230 123 230 22 0
51 -7 66 -16z"/>
<path d="M7196 8449 c-30 -35 -32 -49 -11 -88 24 -48 86 -56 131 -18 57 49 18
137 -61 137 -25 0 -40 -8 -59 -31z"/>
<path d="M8085 8511 c-37 -16 -60 -51 -60 -92 0 -32 7 -46 37 -75 32 -32 40
-36 71 -30 42 8 83 46 90 84 6 30 -12 80 -36 100 -20 17 -76 24 -102 13z m63
-63 c7 -7 12 -19 12 -28 0 -22 -36 -54 -49 -45 -23 14 -7 85 19 85 3 0 11 -5
18 -12z"/>
<path d="M6052 8268 c-17 -17 -15 -45 4 -52 9 -3 175 -6 369 -6 325 0 355 1
364 17 6 11 6 24 0 35 -9 17 -35 18 -367 18 -265 0 -361 -3 -370 -12z"/>
<path d="M6322 7990 c0 -14 2 -19 5 -12 2 6 2 18 0 25 -3 6 -5 1 -5 -13z"/>
<path d="M6320 7950 c0 -6 -48 -10 -124 -10 -68 0 -131 -3 -140 -6 -19 -7 -21
-45 -4 -62 8 -8 55 -12 145 -12 l133 0 0 50 c0 28 -2 50 -5 50 -3 0 -5 -4 -5
-10z"/>
<path d="M6508 7928 c-3 -7 -2 -24 2 -38 6 -25 6 -25 139 -28 145 -3 164 3
159 47 l-3 26 -146 3 c-112 2 -148 -1 -151 -10z"/>
<path d="M1975 8100 c-35 -39 6 -80 45 -45 14 13 17 22 10 35 -14 27 -36 31
-55 10z"/>
<path d="M3640 7864 c-14 -36 3 -64 38 -64 33 0 52 16 52 45 0 29 -19 45 -52
45 -21 0 -31 -6 -38 -26z"/>
<path d="M7300 7771 c-69 -21 -132 -75 -165 -141 -10 -19 -20 -62 -23 -97 -6
-79 15 -140 70 -199 169 -183 471 -40 445 211 -16 159 -179 271 -327 226z
m132 -57 c71 -28 138 -102 138 -154 0 -19 -6 -20 -90 -20 l-90 0 0 54 c0 47
-3 56 -21 61 -28 9 -39 -9 -39 -67 l0 -46 -80 -4 c-78 -3 -80 -2 -80 20 0 13
5 33 11 44 11 20 12 21 25 4 7 -10 21 -16 31 -14 23 4 31 48 9 48 -22 0 -20
23 3 44 23 21 86 45 118 46 13 0 42 -7 65 -16z m129 -276 c-6 -18 -20 -44 -30
-57 l-18 -23 5 31 c4 28 2 31 -21 31 -14 0 -29 -5 -32 -10 -10 -16 5 -50 21
-50 45 0 -24 -43 -88 -55 -67 -13 -179 37 -150 66 21 23 15 49 -13 49 -17 0
-25 -6 -25 -17 0 -29 -28 6 -36 45 l-6 32 81 0 81 0 0 -42 c0 -52 11 -71 36
-66 15 2 20 14 22 55 l3 52 87 3 c48 2 88 0 90 -4 2 -4 -1 -22 -7 -40z"/>
<path d="M7470 7645 c-19 -23 -8 -50 23 -53 23 -3 27 0 27 20 0 23 -16 48 -31
48 -4 0 -12 -7 -19 -15z"/>
<path d="M2827 7759 c-106 -16 -224 -106 -244 -187 -13 -49 -3 -97 25 -133 15
-18 22 -20 40 -10 20 10 20 13 6 46 -19 46 -18 71 7 114 39 71 131 111 251
111 38 0 77 -4 87 -9 27 -15 24 26 -4 45 -31 20 -110 31 -168 23z"/>
<path d="M1405 7600 c-7 -12 16 -44 82 -112 49 -53 51 -54 77 -35 16 12 15 15
-11 43 -15 17 -45 49 -66 72 -36 40 -69 53 -82 32z"/>
<path d="M1583 7596 c4 -10 7 -19 7 -22 0 -12 65 -34 100 -34 46 0 49 8 15 40
-32 30 -132 43 -122 16z"/>
<path d="M1800 7600 c0 -6 11 -22 25 -35 20 -21 34 -25 79 -25 44 0 54 3 50
15 -13 34 -154 75 -154 45z"/>
<path d="M1760 7505 c0 -31 49 -64 85 -58 24 5 24 5 -12 44 -42 46 -73 52 -73
14z"/>
<path d="M1953 7495 c-7 -21 24 -44 60 -45 33 0 34 10 4 38 -27 26 -55 28 -64
7z"/>
<path d="M3660 7436 c-23 -45 9 -79 56 -58 17 9 24 20 24 41 0 46 -57 58 -80
17z"/>
<path d="M1683 6905 c-150 -46 -231 -163 -221 -320 11 -173 144 -300 313 -300
73 0 149 24 159 51 9 23 -11 25 -76 9 -219 -57 -412 173 -312 373 46 93 127
141 237 142 104 0 184 -48 243 -149 21 -35 26 -37 44 -17 18 22 -18 93 -72
142 -81 75 -209 103 -315 69z"/>
<path d="M1715 6756 c-70 -32 -110 -96 -103 -167 11 -116 134 -188 240 -141
105 46 140 170 71 252 -52 63 -140 86 -208 56z m125 -75 c40 -28 54 -65 40
-106 -29 -89 -147 -101 -189 -18 -26 51 -2 115 54 139 34 15 58 11 95 -15z"/>
<path d="M3980 5400 c-11 -11 -20 -26 -20 -33 0 -20 33 -47 58 -47 19 0 52 33
52 52 0 14 -39 48 -55 48 -8 0 -24 -9 -35 -20z"/>
<path d="M4172 5237 c-38 -39 -38 -41 -12 -74 11 -14 20 -34 20 -44 0 -30 26
-22 40 11 7 17 22 37 33 45 19 13 19 14 -1 43 -38 53 -45 55 -80 19z"/>
<path d="M5872 6277 c-7 -8 -10 -22 -6 -31 6 -14 42 -16 358 -15 l351 1 -75
26 c-72 25 -85 26 -346 29 -226 4 -273 2 -282 -10z"/>
<path d="M1074 6101 c-65 -40 -95 -116 -69 -178 22 -53 52 -81 98 -94 88 -24
183 53 181 147 -2 111 -120 180 -210 125z m100 -100 c14 -15 15 -23 5 -45 -10
-22 -18 -26 -43 -24 -26 2 -32 8 -34 31 -6 52 38 76 72 38z"/>
<path d="M8086 6015 c-53 -19 -106 -63 -140 -118 -22 -36 -30 -63 -33 -114 -9
-121 24 -191 119 -257 47 -32 66 -39 121 -43 58 -5 73 -2 121 21 108 53 166
140 166 250 0 186 -184 322 -354 261z m164 -122 c0 -15 -5 -15 -37 -7 -20 5
-23 13 -23 52 l0 46 30 -40 c16 -21 30 -45 30 -51z m-112 -9 c-2 -2 -14 -1
-27 3 -18 5 -21 10 -16 32 3 14 14 32 23 39 15 12 17 9 20 -29 2 -22 2 -43 0
-45z m-96 27 c-2 -18 -11 -31 -24 -34 -18 -5 -18 -4 -5 16 7 12 17 28 21 35
11 19 13 15 8 -17z m273 -1 c26 -27 27 -30 8 -30 -12 0 -25 10 -31 25 -21 45
-16 46 23 5z m-287 -113 c3 -35 2 -37 -27 -37 -25 0 -31 4 -31 21 0 64 53 79
58 16z m122 16 c0 -41 -13 -55 -46 -51 -24 2 -29 7 -26 28 4 43 10 50 42 50
26 0 30 -4 30 -27z m110 18 c0 -5 3 -23 6 -40 6 -31 6 -31 -35 -31 l-41 0 0
40 c0 39 1 40 35 40 19 0 35 -4 35 -9z m112 -15 c14 -33 4 -56 -26 -56 -20 0
-24 6 -28 35 -2 19 1 37 7 39 23 10 36 5 47 -18z m-352 -115 c15 -29 12 -61
-6 -61 -12 0 -44 54 -44 75 0 14 41 3 50 -14z m126 -6 c10 -40 -1 -57 -33 -49
-40 10 -43 12 -43 38 0 30 7 36 41 36 22 0 30 -6 35 -25z m116 20 c3 -3 2 -20
-1 -38 -6 -27 -11 -32 -36 -32 -26 0 -30 4 -33 29 -2 16 2 32 10 37 15 10 52
12 60 4z m118 -5 c0 -32 -40 -80 -66 -80 -11 0 -2 61 12 74 17 18 54 22 54 6z
m-330 -120 c6 -11 9 -20 7 -20 -2 0 -12 9 -22 20 -10 11 -13 20 -7 20 6 0 16
-9 22 -20z m90 -20 c0 -32 -9 -37 -28 -18 -19 19 -15 48 8 48 16 0 20 -7 20
-30z m100 15 c0 -14 -37 -55 -50 -55 -3 0 -4 16 -2 35 3 29 8 35 28 35 14 0
24 -6 24 -15z m70 1 c0 -2 -7 -9 -15 -16 -13 -11 -14 -10 -9 4 5 14 24 23 24
12z"/>
<path d="M2646 5908 c-91 -19 -146 -86 -146 -178 0 -70 22 -115 78 -157 37
-28 52 -33 98 -33 94 0 165 51 190 136 23 79 2 140 -64 193 -46 36 -103 50
-156 39z m75 -48 c26 -15 24 -32 -10 -64 l-29 -28 -31 28 c-37 32 -39 51 -8
64 30 12 55 12 78 0z m-92 -109 c16 -17 20 -26 12 -29 -7 -2 -23 -27 -36 -54
l-23 -50 -16 30 c-19 37 -21 110 -4 148 l12 26 16 -23 c8 -13 26 -35 39 -48z
m195 -6 c5 -25 1 -48 -15 -83 l-21 -47 -17 36 c-9 20 -22 44 -30 52 -11 14 -8
24 16 67 27 49 28 50 44 31 9 -11 20 -36 23 -56z m-124 -11 c0 -8 -7 -14 -15
-14 -15 0 -21 21 -9 33 10 9 24 -2 24 -19z m30 -90 c12 -22 17 -41 12 -46 -15
-15 -76 -20 -105 -9 l-28 11 33 40 c18 22 40 40 50 40 9 0 26 -16 38 -36z"/>
<path d="M2490 5549 c0 -5 5 -7 10 -4 6 3 10 8 10 11 0 2 -4 4 -10 4 -5 0 -10
-5 -10 -11z"/>
<path d="M1362 5748 c-31 -31 7 -81 43 -55 23 18 16 61 -10 65 -11 1 -26 -3
-33 -10z"/>
<path d="M8890 5615 l0 -25 165 0 165 0 0 25 0 25 -165 0 -165 0 0 -25z"/>
<path d="M8940 5531 c0 -25 19 -31 82 -25 29 3 48 2 42 -3 -6 -4 -15 -27 -19
-50 l-7 -43 -44 0 c-44 0 -44 0 -44 -35 0 -35 0 -35 45 -35 l45 0 0 -40 c0
-39 1 -40 34 -40 33 0 35 2 38 38 3 36 4 37 46 40 41 3 42 4 42 37 0 33 -1 34
-42 37 l-43 3 -3 48 -3 47 50 0 c44 0 51 3 51 20 0 19 -7 20 -135 20 -126 0
-135 -1 -135 -19z"/>
<path d="M5877 5374 c-17 -17 -4 -25 36 -22 23 2 42 8 42 13 0 12 -67 19 -78
9z m60 -10 c-3 -3 -12 -4 -19 -1 -8 3 -5 6 6 6 11 1 17 -2 13 -5z"/>
<path d="M2226 5138 c-22 -31 -20 -54 6 -72 43 -31 98 -8 98 41 0 49 -76 72
-104 31z"/>
<path d="M1716 5090 c-80 -84 -96 -111 -96 -162 l0 -30 53 44 c28 23 54 46 55
51 8 18 22 4 22 -22 0 -28 -32 -64 -102 -116 l-28 -20 8 -114 7 -113 47 41
c56 50 70 52 66 9 -2 -24 -13 -38 -50 -64 -26 -18 -52 -34 -58 -36 -9 -3 -17
-225 -7 -234 2 -3 26 12 52 31 31 24 51 33 57 27 19 -19 -4 -54 -57 -88 -56
-35 -64 -52 -57 -121 l4 -31 71 39 c40 21 80 39 90 39 16 0 17 29 17 475 0
262 -4 475 -9 475 -4 0 -43 -36 -85 -80z m32 -287 c2 -13 -10 -33 -35 -57 -21
-20 -41 -36 -45 -36 -5 0 -8 15 -8 34 0 27 7 40 33 60 36 29 51 29 55 -1z m2
-298 c0 -15 -12 -33 -32 -48 -55 -40 -58 -41 -58 -11 0 18 12 38 36 60 39 37
54 36 54 -1z"/>
<path d="M9239 4396 c-38 -13 -109 -54 -109 -62 0 -3 4 -3 9 0 4 3 33 0 63 -6
29 -6 65 -8 79 -5 35 9 82 54 75 72 -7 19 -67 19 -117 1z"/>
<path d="M4166 3854 c-20 -19 -20 -28 -1 -44 11 -9 75 -12 242 -11 247 2 267
6 237 49 -15 22 -19 22 -239 22 -190 0 -226 -2 -239 -16z"/>
<path d="M8857 3973 c-11 -11 -9 -16 38 -73 43 -53 44 -56 39 -106 -5 -43 -4
-52 12 -58 26 -10 42 12 54 74 7 39 21 67 50 101 29 34 36 49 27 58 -17 17
-26 14 -69 -25 l-40 -36 -37 36 c-35 34 -60 44 -74 29z"/>
<path d="M8976 3565 c-3 -9 -6 -22 -5 -28 0 -7 5 -1 10 12 5 13 8 26 5 28 -2
2 -6 -3 -10 -12z"/>
<path d="M8093 3329 c-89 -17 -173 -82 -215 -168 -33 -68 -37 -185 -8 -243 28
-57 57 -94 66 -86 4 4 2 13 -3 20 -9 12 -53 122 -53 133 0 3 13 5 29 5 17 0
32 4 35 8 9 14 -11 35 -35 36 -21 1 -24 5 -21 36 5 49 45 122 84 155 138 117
326 75 404 -90 33 -69 31 -91 -6 -98 -21 -5 -30 -12 -30 -27 0 -16 7 -20 30
-20 22 0 30 -5 30 -17 0 -21 -41 -109 -63 -138 -14 -19 -16 -19 -22 -2 -10 24
-45 22 -45 -2 0 -11 5 -23 10 -26 6 -4 8 -11 5 -16 -16 -25 18 -3 67 44 40 38
59 66 73 106 68 205 -123 430 -332 390z"/>
<path d="M8107 3224 c-11 -11 -8 -229 3 -258 5 -14 15 -26 21 -26 15 0 186
162 188 178 0 7 -4 23 -10 34 -10 19 -15 17 -75 -43 l-63 -63 -3 90 c-3 87 -4
89 -28 92 -14 2 -29 0 -33 -4z"/>
<path d="M7960 3181 c0 -24 25 -45 45 -37 24 9 18 36 -11 46 -34 13 -34 13
-34 -9z"/>
<path d="M7966 2832 c-15 -18 -15 -19 8 -30 27 -12 46 0 46 30 0 24 -32 23
-54 0z"/>
<path d="M8116 2784 c-10 -25 -7 -31 15 -37 29 -8 49 2 49 23 0 30 -53 42 -64
14z"/>
<path d="M9050 3025 c-10 -12 -10 -21 -2 -40 10 -21 9 -27 -8 -37 -26 -17
-180 -194 -180 -207 0 -6 11 -13 25 -17 23 -6 40 7 139 102 l112 109 -20 38
c-11 20 -27 44 -37 52 -14 14 -18 14 -29 0z"/>
<path d="M1840 1790 l0 -660 3360 0 3359 0 1 660 0 660 -3360 0 -3360 0 0
-660z m686 425 c68 -41 176 -77 283 -95 l74 -12 -7 -102 c-4 -55 -7 -109 -7
-119 0 -9 -3 -16 -7 -13 -4 2 -8 -17 -8 -43 -3 -101 -78 -257 -166 -342 -54
-52 -153 -109 -191 -109 -14 0 -27 -6 -30 -12 -9 -25 -137 52 -213 127 -126
125 -188 297 -195 543 -1 34 0 63 2 65 2 1 42 11 89 20 129 26 182 44 251 87
35 21 65 39 65 40 1 0 28 -16 60 -35z m2727 -83 c145 -72 219 -223 196 -402
-11 -92 -45 -166 -104 -229 -80 -86 -179 -117 -314 -101 -98 13 -163 43 -215
101 -98 109 -129 253 -87 400 24 83 33 101 83 155 78 84 161 116 295 111 67
-3 92 -9 146 -35z m769 18 c155 -48 238 -175 238 -365 0 -223 -110 -361 -308
-385 -133 -17 -245 21 -325 110 -69 76 -91 142 -91 270 -1 116 10 159 56 232
83 133 262 190 430 138z m2109 10 c48 -9 150 -52 187 -78 11 -7 7 -23 -21 -79
l-36 -70 -83 28 c-143 49 -268 36 -268 -27 0 -30 11 -35 150 -70 148 -38 196
-64 237 -132 43 -69 25 -196 -36 -259 -65 -68 -217 -95 -372 -68 -76 13 -180
55 -224 90 -19 15 -19 16 5 61 14 25 34 56 45 71 l21 25 34 -21 c120 -74 320
-81 320 -12 0 29 -22 40 -139 71 -164 43 -221 79 -255 162 -42 100 8 229 108
277 79 39 217 52 327 31z m-4458 -20 c51 -18 111 -72 144 -127 37 -63 43 -195
12 -263 -49 -110 -129 -150 -316 -158 l-123 -5 0 -92 0 -92 -107 2 -108 2 -3
377 -2 378 232 -5 c159 -2 245 -8 271 -17z m782 -8 c92 -42 146 -113 166 -215
18 -95 -29 -205 -103 -243 -18 -9 -35 -18 -37 -20 -1 -1 24 -54 58 -117 34
-63 61 -117 61 -121 0 -3 -54 -6 -120 -6 l-120 0 -50 100 -50 100 -50 0 -50 0
-1 -92 c-1 -51 -1 -96 0 -100 0 -4 -49 -8 -109 -10 l-110 -3 0 378 0 379 233
-4 c217 -3 235 -5 282 -26z m2117 -119 l3 -147 100 123 c55 68 109 135 120
148 19 23 24 24 143 21 l123 -3 -28 -36 c-15 -20 -76 -95 -135 -167 l-107
-131 131 -198 c72 -109 132 -202 134 -208 3 -7 -40 -8 -123 -5 l-126 5 -73
118 c-40 65 -74 121 -77 123 -3 3 -23 -14 -46 -38 l-40 -43 -1 -88 0 -88 -107
3 -108 3 -3 378 -2 377 110 0 109 0 3 -147z m858 -128 l0 -275 75 0 75 0 0
-100 0 -100 -158 0 c-88 0 -193 -3 -235 -6 l-77 -7 0 107 0 106 54 0 c52 0 54
1 60 31 3 17 6 96 6 174 0 160 3 155 -82 155 l-38 0 0 95 0 95 160 0 160 0 0
-275z"/>
<path d="M2420 2157 c-49 -30 -160 -68 -258 -87 -49 -10 -62 -16 -58 -29 3 -9
7 -45 11 -81 9 -94 41 -223 70 -283 13 -29 43 -74 66 -102 40 -48 144 -135
163 -135 5 0 18 -7 28 -17 17 -15 21 -15 60 2 100 44 192 124 243 211 30 51
65 154 65 193 0 17 4 22 16 17 14 -5 15 -4 5 8 -8 9 -10 28 -7 48 6 30 -1 25
-81 -62 -48 -52 -133 -141 -188 -198 l-100 -103 -109 110 -109 110 65 67 65
67 43 -47 43 -47 66 73 c36 40 96 105 133 144 l68 71 -53 12 c-30 6 -87 29
-128 49 l-75 38 -44 -29z"/>
<path d="M2740 2074 c1 -8 71 -63 93 -72 4 -2 7 12 7 32 0 29 -4 36 -19 36
-10 0 -33 3 -50 6 -17 4 -31 3 -31 -2z"/>
<path d="M5033 1969 c-68 -20 -109 -107 -99 -212 10 -111 61 -167 152 -167 91
0 147 74 147 195 0 146 -79 219 -200 184z"/>
<path d="M5850 1972 c-76 -35 -105 -95 -98 -204 6 -85 26 -131 71 -158 70 -43
163 -13 202 65 27 56 27 178 -1 226 -37 63 -118 96 -174 71z"/>
<path d="M3392 1876 l-4 -96 82 0 c118 0 160 27 160 103 0 23 -8 41 -26 58
-22 21 -37 24 -117 27 l-92 4 -3 -96z"/>
<path d="M4160 1878 l0 -93 93 5 c101 5 117 13 137 60 10 24 10 36 0 60 -19
45 -56 60 -150 60 l-80 0 0 -92z"/>
<path d="M1512 2208 c-19 -19 -14 -55 10 -72 19 -13 25 -14 43 -2 26 17 31 49
10 70 -19 19 -46 21 -63 4z"/>
<path d="M8789 2199 c-18 -18 -19 -23 -6 -42 19 -30 62 -34 76 -8 17 30 -4 70
-36 71 -7 0 -22 -9 -34 -21z"/>
<path d="M4955 9493 c-37 -9 -45 -24 -45 -82 0 -65 19 -101 55 -101 51 0 55 7
55 95 0 66 -3 84 -16 89 -17 6 -18 6 -49 -1z"/>
<path d="M3636 9099 c-30 -23 -33 -45 -10 -77 19 -27 65 -29 86 -4 28 32 29
52 3 78 -29 29 -45 30 -79 3z"/>
<path d="M5038 9098 c-8 -7 -18 -20 -21 -29 -7 -22 19 -59 43 -59 45 0 69 69
31 90 -25 13 -34 13 -53 -2z"/>
<path d="M6800 8939 c-28 -52 26 -107 73 -76 39 26 41 55 4 78 -41 25 -64 24
-77 -2z"/>
<path d="M7175 8940 c-8 -13 15 -13 35 0 12 8 11 10 -7 10 -12 0 -25 -4 -28
-10z"/>
<path d="M7663 8923 c-18 -7 -16 -48 2 -63 20 -17 62 -5 70 21 12 36 -28 60
-72 42z"/>
<path d="M2866 8904 c-19 -19 -21 -58 -3 -72 6 -5 23 -13 35 -17 46 -14 93 60
60 93 -17 17 -74 15 -92 -4z"/>
<path d="M7820 8842 c0 -10 5 -23 12 -30 30 -30 57 -8 42 32 -9 23 -54 21 -54
-2z"/>
<path d="M1358 8209 c-21 -12 -23 -40 -6 -57 7 -7 45 -12 98 -12 74 0 90 3
105 20 9 10 15 25 12 33 -9 24 -175 36 -209 16z"/>
<path d="M8940 7756 c-28 -34 11 -93 47 -70 32 20 39 41 19 63 -22 24 -49 27
-66 7z"/>
<path d="M9119 7472 c-19 -20 -46 -45 -60 -54 l-24 -18 24 -20 c13 -11 28 -20
35 -20 6 0 21 -18 34 -40 12 -22 26 -40 30 -40 13 0 102 107 102 122 0 12 -89
108 -100 108 -3 0 -21 -17 -41 -38z"/>
<path d="M1246 7264 c-19 -48 4 -84 54 -84 26 0 45 39 36 74 -5 22 -12 26 -45
26 -26 0 -41 -5 -45 -16z"/>
<path d="M1127 7134 c-4 -4 -7 -40 -7 -81 0 -69 1 -74 26 -85 46 -21 59 -2 59
88 l0 79 -35 3 c-20 2 -39 0 -43 -4z"/>
<path d="M9517 6842 c-13 -14 -17 -42 -19 -132 -1 -100 1 -114 17 -126 57 -42
78 1 73 142 -4 126 -28 164 -71 116z"/>
<path d="M1013 6832 c-9 -5 -14 -41 -15 -103 -3 -110 6 -132 56 -127 l31 3 8
80 c12 124 1 155 -51 155 -9 0 -23 -4 -29 -8z"/>
<path d="M9546 5861 c-25 -28 -17 -64 17 -75 37 -13 61 2 65 43 3 26 -1 33
-23 41 -36 14 -39 13 -59 -9z"/>
<path d="M9519 5563 c-23 -6 -29 -33 -22 -101 6 -60 14 -72 51 -72 15 0 26 8
32 26 12 30 13 114 2 130 -9 14 -42 23 -63 17z"/>
<path d="M746 5374 c-21 -21 -20 -37 3 -58 39 -35 94 10 65 52 -18 26 -46 28
-68 6z"/>
<path d="M829 5189 c-14 -14 -18 -27 -14 -42 21 -70 115 -57 115 16 0 46 -64
63 -101 26z"/>
<path d="M812 4934 c-36 -25 -27 -81 17 -111 l34 -23 31 24 c80 61 0 168 -82
110z"/>
<path d="M9486 3884 c-10 -27 -7 -43 13 -54 38 -20 71 13 51 51 -13 23 -55 25
-64 3z"/>
<path d="M9429 3619 c-16 -16 -20 -28 -15 -52 8 -42 26 -58 65 -59 63 -2 93
64 51 110 -27 28 -73 29 -101 1z"/>
<path d="M9300 3410 c-21 -21 -20 -30 8 -62 20 -23 37 -23 62 2 24 24 25 43 4
64 -21 22 -50 20 -74 -4z"/>
<path d="M9585 3259 c-12 -18 4 -56 25 -62 26 -7 33 6 25 43 -7 30 -37 42 -50
19z"/>
<path d="M9222 2334 c1 -9 9 -19 16 -22 9 -3 13 2 10 14 -1 9 -9 19 -16 22 -9
3 -13 -2 -10 -14z"/>
</g>
</svg>
